# 3ds Max Wavefront OBJ Exporter v0.97b - (c)2007 guruware
# File Created: 29.04.2024 16:10:59

mtllib chair_01.mtl

#
# object Box031
#

v  103.8094 16.5509 -9.5406
v  105.2749 16.5509 -9.5834
v  105.2749 16.5509 -7.7623
v  103.8094 16.5509 -7.7623
v  105.2749 20.0155 -9.5834
v  105.2749 20.0155 -7.7623
v  120.5435 20.0155 -7.7623
v  120.5435 20.0155 -9.5834
v  103.8094 19.9917 -9.5406
v  103.8094 20.0155 -7.7623
v  105.2749 20.0155 9.5405
v  105.2749 16.5509 9.5405
v  120.5435 16.5509 9.5405
v  120.5435 20.0155 9.5405
v  122.0087 16.5509 9.5405
v  122.0087 19.9917 9.5405
v  122.0087 16.5509 7.9639
v  122.0087 20.0155 7.9639
v  120.5435 16.5509 -9.5834
v  121.0756 10.8707 -9.3844
v  104.2246 10.8707 -9.3844
v  104.2246 13.3135 -9.3844
v  121.0756 13.3135 -9.3844
v  121.0756 13.3135 -6.8463
v  104.2246 13.3135 -6.8463
v  104.2246 10.8707 -6.8463
v  121.0756 10.8707 -6.8463
v  119.6644 1.5545 6.5980
v  119.6650 20.4183 6.5980
v  122.7449 20.4183 6.5980
v  122.7442 1.5545 6.5980
v  122.7442 1.5545 9.7981
v  122.7449 20.4183 9.7981
v  119.6650 20.4183 9.7981
v  119.6644 1.5545 9.7981
v  103.4000 1.5545 -6.0990
v  106.1133 1.5545 -6.0990
v  106.1139 27.3573 -6.0990
v  103.4000 31.4440 -6.0990
v  119.7061 1.5545 -6.0990
v  122.4202 1.5545 -6.0990
v  122.4202 31.4440 -6.0990
v  119.7067 27.3573 -6.0990
v  106.1133 1.5545 -9.5834
v  103.4000 1.5545 -9.5834
v  103.4000 31.4440 -9.5834
v  106.1139 27.3573 -9.5834
v  119.7067 37.9654 -9.5834
v  122.4202 37.9654 -9.5834
v  122.4202 31.4440 -9.5834
v  119.7067 35.5886 -9.5834
v  106.1139 37.9654 -9.5834
v  103.4000 37.9654 -9.5834
v  103.4000 37.9654 -6.0990
v  106.1139 37.9654 -6.0990
v  122.4202 37.9654 -6.0990
v  119.7067 37.9654 -6.0990
v  103.0729 1.5545 6.5980
v  103.0735 20.4183 6.5980
v  106.1534 20.4183 6.5980
v  106.1527 1.5545 6.5980
v  106.1527 1.5545 9.7981
v  106.1534 20.4183 9.7981
v  103.0735 20.4183 9.7981
v  103.0729 1.5545 9.7981
v  120.5435 16.5509 7.9639
v  105.2749 16.5509 7.9639
v  103.8094 20.0155 7.9639
v  103.8094 19.9917 9.5405
v  105.2749 20.0155 7.9639
v  122.0087 20.0155 -7.7623
v  120.5435 20.0155 7.9639
v  103.8094 16.5509 7.9639
v  103.8094 16.5509 9.5405
v  122.0087 16.5509 -7.7623
v  122.0087 16.5509 -9.5406
v  120.5435 16.5509 -7.7623
v  122.0087 19.9917 -9.5406
v  109.9188 21.1490 -1.8359
v  109.9188 21.1490 3.2809
v  115.8994 21.1490 3.2809
v  115.8994 21.1490 -1.8359
v  106.1139 35.5886 -6.0990
v  119.7067 35.5886 -6.0990
v  106.1139 35.5886 -9.5834
v  119.7067 33.1823 -9.5834
v  106.1139 33.1823 -9.5834
v  106.1139 33.1823 -6.0990
v  119.7067 33.1823 -6.0990
v  119.7067 29.6479 -9.5834
v  106.1139 29.6479 -6.0990
v  119.7067 29.6479 -6.0990
v  106.1139 29.6479 -9.5834
v  119.7067 27.3573 -9.5834
v  122.4202 1.5545 -9.5834
v  119.7061 1.5545 -9.5834
v  121.0756 10.8707 6.9048
v  104.2246 10.8707 6.9048
v  104.2246 13.3135 6.9048
v  121.0756 13.3135 6.9048
v  121.0756 13.3135 9.4429
v  104.2246 13.3135 9.4429
v  104.2246 10.8707 9.4429
v  121.0756 10.8707 9.4429
# 104 vertices

vn -0.5850 -0.5789 -0.5680
vn -0.0104 -0.7039 -0.7103
vn 0.0000 -1.0000 -0.0000
vn -0.7071 -0.7071 0.0000
vn -0.0160 0.7056 -0.7084
vn -0.0257 0.9993 -0.0274
vn 0.0257 0.9993 -0.0274
vn 0.0160 0.7056 -0.7084
vn -0.5900 0.5695 -0.5724
vn -0.7056 0.7086 -0.0047
vn -0.0057 0.7089 0.7053
vn 0.0000 -0.7071 0.7071
vn -0.0000 -0.7071 0.7071
vn 0.0057 0.7089 0.7052
vn 0.5774 -0.5774 0.5774
vn 0.5824 0.5674 0.5821
vn 0.7071 -0.7071 -0.0000
vn 0.7054 0.7088 0.0053
vn 0.0104 -0.7038 -0.7103
vn 0.5774 -0.5774 -0.5774
vn -0.5774 -0.5774 -0.5774
vn -0.5774 0.5774 -0.5774
vn 0.5774 0.5774 -0.5774
vn 0.5774 0.5774 0.5774
vn -0.5774 0.5774 0.5774
vn -0.5774 -0.5774 0.5774
vn -0.5774 -0.5773 -0.5774
vn -0.5773 0.5774 -0.5773
vn 0.5774 0.5773 -0.5774
vn 0.5773 -0.5774 -0.5773
vn 0.5773 -0.5774 0.5773
vn 0.5774 0.5773 0.5774
vn -0.5773 0.5774 0.5773
vn -0.5774 -0.5773 0.5774
vn -0.7071 0.0000 0.7071
vn 0.7071 -0.0000 0.7071
vn 0.3015 -0.3015 0.9045
vn 0.7071 0.0000 0.7071
vn -0.3015 -0.3015 0.9045
vn 0.7071 -0.0000 -0.7071
vn -0.7071 0.0000 -0.7071
vn 0.3015 -0.3015 -0.9045
vn 0.7071 0.0000 -0.7071
vn -0.3015 0.3015 -0.9045
vn -0.0000 -1.0000 0.0000
vn 0.0000 -1.0000 0.0000
vn -0.7055 0.7087 0.0053
vn -0.5824 0.5674 0.5821
vn -0.0301 0.9991 0.0301
vn 0.7056 0.7086 -0.0047
vn 0.0301 0.9991 0.0301
vn 0.5849 -0.5789 -0.5681
vn 0.5900 0.5695 -0.5724
vn -0.0943 0.9932 -0.0676
vn -0.0901 0.9919 0.0891
vn 0.0901 0.9919 0.0891
vn 0.0943 0.9932 -0.0676
vn 0.3015 0.3015 0.9045
vn -0.3015 0.3015 0.9045
vn 0.3015 0.3015 -0.9045
vn -0.3015 -0.3015 -0.9045
# 61 vertex normals

vt 1.0000 0.0000 0.0000
vt 1.0000 0.1690 0.0000
vt 0.9068 0.1690 0.0000
vt 0.9068 0.0000 0.0000
vt 0.0000 0.1690 0.0000
vt 0.0932 0.1690 0.0000
vt 0.0932 0.9537 0.0000
vt 0.0000 0.9537 0.0000
vt 0.0000 1.0000 0.0000
vt 0.0000 0.0000 0.0000
vt 0.0932 0.0000 0.0000
vt 0.0932 1.0000 0.0000
vt 0.1690 1.0000 0.0000
vt 0.1690 0.0000 0.0000
vt 0.9537 0.0000 0.0000
vt 0.9537 1.0000 0.0000
vt 1.0000 1.0000 0.0000
vt 0.0826 0.0000 0.0000
vt 0.0826 1.0000 0.0000
vt 0.0463 1.0000 0.0000
vt 0.0463 0.0000 0.0000
vt 0.8310 0.0000 0.0000
vt 0.8310 1.0000 0.0000
vt 1.0000 0.2000 0.0000
vt 0.7137 0.2000 0.0000
vt 0.4751 0.0000 0.0000
vt 1.0000 0.8000 0.0000
vt 0.4751 1.0000 0.0000
vt 0.7137 0.8000 0.0000
vt 0.0000 0.2000 0.0000
vt 0.5249 0.0000 0.0000
vt 0.2863 0.2000 0.0000
vt 0.5249 1.0000 0.0000
vt 0.7666 0.8000 0.0000
vt 0.2000 1.0000 0.0000
vt 0.2000 0.0000 0.0000
vt 0.8000 1.0000 0.0000
vt 0.8000 0.0000 0.0000
vt 0.0826 0.9537 0.0000
vt 0.0826 0.1690 0.0000
vt 0.9174 0.0000 0.0000
vt 0.9174 0.1690 0.0000
vt 0.9174 1.0000 0.0000
vt 0.9174 0.9537 0.0000
vt 0.9068 1.0000 0.0000
vt 1.0000 0.9537 0.0000
vt 0.9068 0.9537 0.0000
vt 0.4038 0.3000 0.0000
vt 0.6719 0.3000 0.0000
vt 0.6719 0.7000 0.0000
vt 0.4038 0.7000 0.0000
vt 0.2334 0.2000 0.0000
vt 0.0000 0.8000 0.0000
vt 0.2334 0.8000 0.0000
vt 0.7666 0.2000 0.0000
vt 0.6271 0.8000 0.0000
vt 0.6271 0.2000 0.0000
vt 0.3729 0.2000 0.0000
vt 0.3729 0.8000 0.0000
vt 0.4197 0.8000 0.0000
vt 0.5803 0.2000 0.0000
vt 0.5803 0.8000 0.0000
vt 0.4197 0.2000 0.0000
vt 0.2863 0.8000 0.0000
# 64 texture coords

o Box031
g Box031
usemtl wire_006135058
s 1
f 1/1/1 2/2/2 3/3/3 4/4/4 
f 5/5/5 6/6/6 7/7/7 8/8/8 
f 9/9/9 1/10/1 4/11/4 10/12/10 
f 11/13/11 12/14/12 13/15/13 14/16/14 
f 15/1/15 16/17/16 14/16/14 13/15/13 
f 15/10/15 17/18/17 18/19/18 16/9/16 
f 8/20/8 19/21/19 2/22/2 5/23/5 
f 9/17/9 5/23/5 2/22/2 1/1/1 
f 20/1/20 21/17/21 22/9/22 23/10/23 
f 24/1/24 25/17/25 26/9/26 27/10/15 
f 20/10/20 23/1/23 24/17/24 27/9/15 
f 24/9/24 23/10/23 22/1/22 25/17/25 
f 25/9/25 22/10/22 21/1/21 26/17/26 
f 27/17/15 26/9/26 21/10/21 20/1/20 
f 28/1/27 29/17/28 30/9/29 31/10/30 
f 32/1/31 33/17/32 34/9/33 35/10/34 
f 28/10/27 31/1/30 32/17/31 35/9/34 
f 32/9/31 31/10/30 30/1/29 33/17/32 
f 33/9/32 30/10/29 29/1/28 34/17/33 
f 35/17/34 34/9/33 29/10/28 28/1/27 
f 36/1/35 37/24/36 38/25/37 39/26/35 
f 40/27/35 41/17/38 42/28/38 43/29/39 
f 44/30/40 45/10/41 46/31/41 47/32/42 
f 48/27/22 49/17/23 50/33/43 51/34/44 
f 45/9/41 36/10/35 39/31/35 46/33/41 
f 52/35/23 53/9/22 54/10/25 55/36/24 
f 56/1/24 49/17/23 48/37/22 57/38/25 
f 56/10/24 42/26/38 50/28/43 49/9/23 
f 58/1/27 59/17/28 60/9/29 61/10/30 
f 62/1/31 63/17/32 64/9/33 65/10/34 
f 58/10/27 61/1/30 62/17/31 65/9/34 
f 62/9/31 61/10/30 60/1/29 63/17/32 
f 63/9/32 60/10/29 59/1/28 64/17/33 
f 65/17/34 64/9/33 59/10/28 58/1/27 
f 66/39/45 13/8/13 12/5/12 67/40/46 
f 17/19/17 15/9/15 13/8/13 66/39/45 
f 68/41/47 69/1/48 11/2/11 70/42/49 
f 18/43/18 71/12/50 7/7/7 72/44/51 
f 73/41/4 74/1/26 69/17/48 68/43/47 
f 17/18/17 75/4/17 71/45/50 18/19/18 
f 19/46/19 76/17/52 75/45/17 77/47/46 
f 14/46/14 16/17/16 18/43/18 72/44/51 
f 8/20/8 78/9/53 76/10/52 19/21/19 
f 2/2/2 19/46/19 77/47/46 3/3/3 
f 5/5/5 9/10/9 10/11/10 6/6/6 
f 11/13/11 69/9/48 74/10/26 12/14/12 
f 12/5/12 74/10/26 73/18/4 67/40/46 
f 11/2/11 14/46/14 72/44/51 70/42/49 
f 79/48/54 80/49/55 81/50/56 82/51/57 
f 83/52/58 55/30/24 54/10/25 39/26/35 
f 42/28/38 56/9/24 57/53/25 84/54/59 
f 46/31/41 53/1/22 52/24/23 85/55/60 
f 51/34/44 86/56/61 87/57/42 85/55/60 
f 50/33/43 86/56/61 51/34/44 
f 39/31/35 54/1/25 53/17/22 46/33/41 
f 88/58/37 83/52/58 39/26/35 
f 89/59/39 84/54/59 83/52/58 88/58/37 
f 42/28/38 84/54/59 89/59/39 
f 46/31/41 85/55/60 87/57/42 
f 50/33/43 90/60/44 86/56/61 
f 91/61/58 88/58/37 39/26/35 
f 42/28/38 89/59/39 92/62/59 
f 46/31/41 87/57/42 93/63/60 
f 90/60/44 94/64/61 47/32/42 93/63/60 
f 50/33/43 94/64/61 90/60/44 
f 38/25/37 91/61/58 39/26/35 
f 43/29/39 92/62/59 91/61/58 38/25/37 
f 42/28/38 92/62/59 43/29/39 
f 46/31/41 93/63/60 47/32/42 
f 50/33/43 95/9/43 96/53/41 94/64/61 
f 42/26/38 41/1/38 95/17/43 50/28/43 
s off
f 52/24/23 55/36/24 83/52/58 85/55/60 
f 83/52/58 84/54/59 51/34/44 85/55/60 
f 84/54/59 57/53/25 48/37/22 51/34/44 
f 93/63/60 87/57/42 88/57/37 91/63/58 
f 86/56/61 90/60/44 92/60/59 89/56/39 
f 87/57/42 86/56/61 89/56/39 88/57/37 
f 93/63/60 91/63/58 92/62/59 90/60/44 
f 44/30/40 47/32/42 38/32/37 37/30/36 
f 94/64/61 96/53/41 40/53/35 43/64/39 
f 38/25/37 47/32/42 94/64/61 43/64/39 
s 1
f 3/3/3 67/40/46 73/18/4 4/4/4 
f 6/6/6 79/48/54 82/51/57 7/7/7 
f 4/11/4 73/41/4 68/43/47 10/12/10 
f 75/45/17 17/19/17 66/39/45 77/47/46 
f 77/47/46 66/39/45 67/40/46 3/3/3 
f 10/11/10 68/41/47 70/42/49 6/6/6 
f 71/12/50 78/9/53 8/8/8 7/7/7 
f 75/4/17 76/1/52 78/17/53 71/45/50 
f 70/42/49 72/44/51 81/50/56 80/49/55 
f 6/6/6 70/42/49 80/49/55 79/48/54 
f 82/51/57 81/50/56 72/44/51 7/7/7 
f 97/1/20 98/17/21 99/9/22 100/10/23 
f 101/1/24 102/17/25 103/9/26 104/10/15 
f 97/10/20 100/1/23 101/17/24 104/9/15 
f 101/9/24 100/10/23 99/1/22 102/17/25 
f 102/9/25 99/10/22 98/1/21 103/17/26 
f 104/17/15 103/9/26 98/10/21 97/1/20 
# 86 polygons - 12 triangles

