# 3ds Max Wavefront OBJ Exporter v0.97b - (c)2007 guruware
# File Created: 29.04.2024 16:16:19

mtllib small_table.mtl

#
# object Box014
#

v  3.1192 -68.2298 0.6236
v  3.1192 -67.3839 0.6236
v  3.1192 -67.3839 -0.6236
v  3.1192 -68.2298 -0.6236
v  5.9774 -68.2298 -0.6236
v  5.0037 -67.3839 -0.6236
v  5.0037 -67.3839 0.6236
v  5.9774 -68.2298 0.6236
v  4.9545 -68.2298 0.6236
v  4.9545 -68.2298 -0.6236
v  5.9774 -71.5945 0.6236
v  5.9774 -71.5945 -0.6236
v  4.9545 -71.5945 -0.6236
v  4.9545 -71.5945 0.6236
v  5.0037 -72.5498 0.6236
v  5.0037 -72.5498 -0.6236
v  3.2501 -72.5498 -0.6236
v  3.2501 -71.5945 -0.6236
v  3.2501 -72.5498 0.6236
v  3.2501 -71.5945 0.6236
# 20 vertices

vn -0.5774 -0.5774 0.5774
vn -0.5774 0.5774 0.5774
vn -0.5774 0.5774 -0.5774
vn -0.5774 -0.5774 -0.5774
vn 0.7106 0.3240 -0.6246
vn 0.2701 0.7227 -0.6361
vn 0.2701 0.7227 0.6361
vn 0.7106 0.3240 0.6246
vn -0.3015 -0.3015 0.9045
vn -0.3015 -0.3015 -0.9045
vn 0.7164 -0.3008 0.6295
vn 0.7164 -0.3008 -0.6295
vn -0.3015 0.3015 -0.9045
vn -0.3015 0.3015 0.9045
vn 0.2934 -0.7181 0.6311
vn 0.2934 -0.7181 -0.6311
vn 0.0000 -0.7071 -0.7071
vn 0.0000 0.7071 -0.7071
vn 0.0000 -0.7071 0.7071
vn 0.0000 0.7071 0.7071
# 20 vertex normals

vt 1.0000 0.0000 0.0000
vt 1.0000 1.0000 0.0000
vt 0.0000 1.0000 0.0000
vt 0.0000 0.0000 0.0000
vt 0.0000 0.6667 0.0000
vt 1.0000 0.6667 0.0000
# 6 texture coords

o Box014
g Box014
usemtl wire_113135006
s 1
f 1/1/1 2/2/2 3/3/3 4/4/4 
f 5/1/5 6/2/6 7/3/7 8/4/8 
f 9/5/9 1/4/1 4/1/4 10/6/10 
f 10/5/10 4/4/4 3/1/3 6/2/6 
f 6/3/6 3/4/3 2/1/2 7/2/7 
f 7/3/7 2/4/2 1/1/1 9/6/9 
f 11/4/11 12/1/12 5/1/5 8/4/8 
f 13/6/13 14/5/14 9/5/9 10/6/10 
f 12/3/12 13/5/13 10/5/10 5/3/5 
f 8/2/8 9/6/9 14/6/14 11/2/11 
f 12/1/12 11/4/11 15/4/15 16/1/16 
f 13/5/13 16/3/16 17/5/17 18/5/18 
f 11/2/11 14/6/14 15/2/15 
f 15/4/15 19/6/19 17/6/17 16/3/16 
f 18/6/18 20/5/20 14/5/14 13/6/13 
f 15/2/15 14/6/14 20/6/20 19/6/19 
f 9/6/9 8/2/8 7/3/7 
f 6/2/6 5/3/5 10/5/10 
f 13/5/13 12/3/12 16/3/16 
# 15 polygons - 4 triangles

#
# object Box025
#

#
# object Box027
#

v  -17.2694 -108.1579 -2.0599
v  -13.3184 -108.1579 -2.0599
v  -13.3184 -108.1579 2.0599
v  -17.2694 -108.1579 2.0599
v  13.3184 -108.1579 -2.0599
v  13.3184 -108.1579 2.0599
v  17.2694 -108.1579 -2.0599
v  17.2694 -108.1579 2.0599
v  -17.2694 -107.1386 -2.0599
v  -17.2694 -107.1386 2.0599
v  -13.3184 -105.9809 2.0599
v  -13.3184 -105.9809 -2.0599
v  13.3184 -105.9809 2.0599
v  13.3184 -105.9809 -2.0599
v  17.2694 -107.1386 2.0599
v  17.2694 -107.1386 -2.0599
# 16 vertices

vn -0.5774 -0.5774 -0.5774
vn 0.0000 -0.7071 -0.7071
vn -0.0000 -0.7071 0.7071
vn -0.5774 -0.5774 0.5774
vn 0.5774 -0.5774 -0.5774
vn 0.5774 -0.5774 0.5774
vn -0.6440 0.4823 -0.5938
vn -0.6440 0.4823 0.5938
vn -0.1046 0.7290 0.6765
vn -0.1046 0.7290 -0.6765
vn 0.1046 0.7290 0.6765
vn 0.1046 0.7290 -0.6765
vn 0.6440 0.4823 0.5938
vn 0.6440 0.4823 -0.5938
# 14 vertex normals

vt 1.0000 0.0000 0.0000
vt 1.0000 0.3333 0.0000
vt 0.0000 0.3333 0.0000
vt 0.0000 0.0000 0.0000
vt 1.0000 0.6667 0.0000
vt 0.0000 0.6667 0.0000
vt 1.0000 1.0000 0.0000
vt 0.0000 1.0000 0.0000
vt 0.3333 0.0000 0.0000
vt 0.3333 1.0000 0.0000
vt 0.6667 0.0000 0.0000
vt 0.6667 1.0000 0.0000
# 12 texture coords

o Box027
g Box027
usemtl wire_006135058
s 2
f 21/7/21 22/8/22 23/9/23 24/10/24 
f 22/8/22 25/11/22 26/12/23 23/9/23 
f 25/11/22 27/13/25 28/14/26 26/12/23 
s 4
f 29/10/27 30/7/28 31/8/29 32/9/30 
f 32/9/30 31/8/29 33/11/31 34/12/32 
f 34/12/32 33/11/31 35/13/33 36/14/34 
s 8
f 21/10/21 24/7/24 30/13/28 29/14/27 
s 16
f 24/10/24 23/15/23 31/16/29 30/14/28 
f 23/15/23 26/17/23 33/18/31 31/16/29 
f 26/17/23 28/7/26 35/13/33 33/18/31 
s 32
f 28/10/26 27/7/25 36/13/34 35/14/33 
s 64
f 27/10/25 25/15/22 34/16/32 36/14/34 
f 25/15/22 22/17/22 32/18/30 34/16/32 
f 22/17/22 21/7/21 29/13/27 32/18/30 
# 14 polygons

#
# object Object001
#

v  -13.1062 -105.8432 1.3405
v  -13.1062 -105.8432 -1.3405
v  -10.4250 -105.8432 -1.3405
v  -10.4250 -105.8432 1.3405
v  -13.1062 -77.2595 1.3405
v  -10.4250 -77.2595 1.3405
v  -10.4250 -77.2595 -1.3405
v  -13.1062 -77.2595 -1.3405
v  10.4252 -105.8432 1.3405
v  10.4252 -105.8432 -1.3405
v  13.1063 -105.8432 -1.3405
v  13.1063 -105.8432 1.3405
v  10.4252 -77.2595 1.3405
v  13.1063 -77.2595 1.3405
v  13.1063 -77.2595 -1.3405
v  10.4252 -77.2595 -1.3405
# 16 vertices

vn -0.5774 -0.5774 0.5774
vn -0.5774 -0.5774 -0.5774
vn 0.5774 -0.5774 -0.5774
vn 0.5774 -0.5774 0.5774
vn -0.5774 0.5774 0.5774
vn 0.5774 0.5774 0.5774
vn 0.5774 0.5774 -0.5774
vn -0.5774 0.5774 -0.5774
# 8 vertex normals

vt 1.0000 0.0000 0.0000
vt 1.0000 1.0000 0.0000
vt 0.0000 1.0000 0.0000
vt 0.0000 0.0000 0.0000
# 4 texture coords

o Object001
g Object001
usemtl wire_006135058
s 2
f 37/19/35 38/20/36 39/21/37 40/22/38 
s 4
f 41/22/39 42/19/40 43/20/41 44/21/42 
s 8
f 37/22/35 40/19/38 42/20/40 41/21/39 
s 16
f 40/22/38 39/19/37 43/20/41 42/21/40 
s 32
f 39/22/37 38/19/36 44/20/42 43/21/41 
s 64
f 38/22/36 37/19/35 41/20/39 44/21/42 
s 2
f 45/19/35 46/20/36 47/21/37 48/22/38 
s 4
f 49/22/39 50/19/40 51/20/41 52/21/42 
s 8
f 45/22/35 48/19/38 50/20/40 49/21/39 
s 16
f 48/22/38 47/19/37 51/20/41 50/21/40 
s 32
f 47/22/37 46/19/36 52/20/42 51/21/41 
s 64
f 46/22/36 45/19/35 49/20/39 52/21/42 
# 12 polygons

#
# object Object002
#

v  1.3405 -105.8432 13.1062
v  -1.3405 -105.8432 13.1062
v  -1.3405 -105.8432 10.4250
v  1.3405 -105.8432 10.4250
v  1.3405 -77.2595 13.1062
v  1.3405 -77.2595 10.4250
v  -1.3405 -77.2595 10.4250
v  -1.3405 -77.2595 13.1062
v  1.3405 -105.8432 -10.4252
v  -1.3405 -105.8432 -10.4252
v  -1.3405 -105.8432 -13.1063
v  1.3405 -105.8432 -13.1063
v  1.3405 -77.2595 -10.4252
v  1.3405 -77.2595 -13.1063
v  -1.3405 -77.2595 -13.1063
v  -1.3405 -77.2595 -10.4252
# 16 vertices

vn 0.5774 -0.5774 0.5774
vn -0.5774 -0.5774 0.5774
vn -0.5774 -0.5774 -0.5774
vn 0.5774 -0.5774 -0.5774
vn 0.5774 0.5774 0.5774
vn 0.5774 0.5774 -0.5774
vn -0.5774 0.5774 -0.5774
vn -0.5774 0.5774 0.5774
# 8 vertex normals

vt 1.0000 0.0000 0.0000
vt 1.0000 1.0000 0.0000
vt 0.0000 1.0000 0.0000
vt 0.0000 0.0000 0.0000
# 4 texture coords

o Object002
g Object002
usemtl wire_006135058
s 2
f 53/23/43 54/24/44 55/25/45 56/26/46 
s 4
f 57/26/47 58/23/48 59/24/49 60/25/50 
s 8
f 53/26/43 56/23/46 58/24/48 57/25/47 
s 16
f 56/26/46 55/23/45 59/24/49 58/25/48 
s 32
f 55/26/45 54/23/44 60/24/50 59/25/49 
s 64
f 54/26/44 53/23/43 57/24/47 60/25/50 
s 2
f 61/23/43 62/24/44 63/25/45 64/26/46 
s 4
f 65/26/47 66/23/48 67/24/49 68/25/50 
s 8
f 61/26/43 64/23/46 66/24/48 65/25/47 
s 16
f 64/26/46 63/23/45 67/24/49 66/25/48 
s 32
f 63/26/45 62/23/44 68/24/50 67/25/49 
s 64
f 62/26/44 61/23/43 65/24/47 68/25/50 
# 12 polygons

#
# object Box028
#

v  2.0599 -108.1579 -17.2694
v  2.0599 -108.1579 -13.3184
v  -2.0599 -108.1579 -13.3184
v  -2.0599 -108.1579 -17.2694
v  2.0599 -108.1579 13.3184
v  -2.0599 -108.1579 13.3184
v  2.0599 -108.1579 17.2694
v  -2.0599 -108.1579 17.2694
v  2.0599 -106.8830 -17.2694
v  -2.0599 -106.8830 -17.2694
v  -2.0599 -105.4350 -13.3184
v  2.0599 -105.4350 -13.3184
v  -2.0599 -105.4350 13.3184
v  2.0599 -105.4350 13.3184
v  -2.0599 -106.8830 17.2694
v  2.0599 -106.8830 17.2694
# 16 vertices

vn 0.5774 -0.5774 -0.5774
vn 0.7071 -0.7071 0.0000
vn -0.7071 -0.7071 -0.0000
vn -0.5774 -0.5774 -0.5774
vn 0.5774 -0.5774 0.5774
vn -0.5774 -0.5774 0.5774
vn 0.5938 0.4823 -0.6440
vn -0.5938 0.4823 -0.6440
vn -0.6765 0.7290 -0.1046
vn 0.6765 0.7290 -0.1046
vn -0.6765 0.7290 0.1046
vn 0.6765 0.7290 0.1046
vn -0.5938 0.4823 0.6440
vn 0.5938 0.4823 0.6440
# 14 vertex normals

vt 1.0000 0.0000 0.0000
vt 1.0000 0.3333 0.0000
vt 0.0000 0.3333 0.0000
vt 0.0000 0.0000 0.0000
vt 1.0000 0.6667 0.0000
vt 0.0000 0.6667 0.0000
vt 1.0000 1.0000 0.0000
vt 0.0000 1.0000 0.0000
vt 0.3333 0.0000 0.0000
vt 0.3333 1.0000 0.0000
vt 0.6667 0.0000 0.0000
vt 0.6667 1.0000 0.0000
# 12 texture coords

o Box028
g Box028
usemtl wire_006135058
s 2
f 69/27/51 70/28/52 71/29/53 72/30/54 
f 70/28/52 73/31/52 74/32/53 71/29/53 
f 73/31/52 75/33/55 76/34/56 74/32/53 
s 4
f 77/30/57 78/27/58 79/28/59 80/29/60 
f 80/29/60 79/28/59 81/31/61 82/32/62 
f 82/32/62 81/31/61 83/33/63 84/34/64 
s 8
f 69/30/51 72/27/54 78/33/58 77/34/57 
s 16
f 72/30/54 71/35/53 79/36/59 78/34/58 
f 71/35/53 74/37/53 81/38/61 79/36/59 
f 74/37/53 76/27/56 83/33/63 81/38/61 
s 32
f 76/30/56 75/27/55 84/33/64 83/34/63 
s 64
f 75/30/55 73/35/52 82/36/62 84/34/64 
f 73/35/52 70/37/52 80/38/60 82/36/62 
f 70/37/52 69/27/51 77/33/57 80/38/60 
# 14 polygons

#
# object Cylinder009
#

v  0.3750 -73.4271 -0.0000
v  1.8868 -73.4271 -0.7050
v  1.7414 -73.4271 0.9568
v  0.5204 -73.4271 -1.6618
v  -0.9915 -73.4271 -0.9568
v  -1.1369 -73.4271 0.7050
v  0.2296 -73.4271 1.6618
v  3.3987 -73.4271 -1.4100
v  3.1079 -73.4271 1.9136
v  0.6657 -73.4271 -3.3236
v  -2.3580 -73.4271 -1.9136
v  -2.6488 -73.4271 1.4100
v  0.0842 -73.4271 3.3236
v  3.3987 -66.5120 -1.4100
v  3.1079 -66.5120 1.9136
v  0.6657 -66.5120 -3.3236
v  -2.3580 -66.5120 -1.9136
v  -2.6488 -66.5120 1.4100
v  0.0842 -66.5120 3.3236
v  2.2136 -66.5120 -0.8574
v  2.0368 -66.5120 1.1636
v  0.5518 -66.5120 -2.0210
v  -1.2868 -66.5120 -1.1636
v  -1.4636 -66.5120 0.8574
v  0.1982 -66.5120 2.0210
v  0.3750 -67.7282 0.0000
v  2.0368 -67.7282 1.1636
v  2.2136 -67.7267 -0.8574
v  0.5518 -67.7267 -2.0210
v  -1.2868 -67.7282 -1.1636
v  -1.4636 -67.7282 0.8574
v  0.1982 -67.7282 2.0210
# 32 vertices

vn 0.0000 -1.0000 -0.0000
vn 0.7182 -0.6100 -0.3349
vn 0.6491 -0.6100 0.4545
vn 0.0691 -0.6100 -0.7894
vn -0.6491 -0.6100 -0.4545
vn -0.7182 -0.6100 0.3349
vn -0.0691 -0.6100 0.7894
vn 0.7182 0.6100 -0.3349
vn 0.6491 0.6100 0.4545
vn 0.0691 0.6100 -0.7894
vn -0.6491 0.6100 -0.4545
vn -0.7182 0.6100 0.3349
vn -0.0691 0.6100 0.7894
vn -0.4937 0.8386 0.2302
vn -0.4462 0.8387 -0.3124
vn -0.0475 0.8386 0.5426
vn 0.4461 0.8387 0.3124
vn 0.4936 0.8387 -0.2302
vn 0.0475 0.8387 -0.5426
vn -0.0002 1.0000 0.0003
vn -0.6491 0.6101 -0.4543
vn -0.7183 0.6097 0.3351
vn -0.0692 0.6097 0.7896
vn 0.6489 0.6101 0.4546
vn 0.7181 0.6100 -0.3349
# 25 vertex normals

vt 0.5000 0.0000 0.0000
vt 0.9167 0.0000 0.5000
vt 0.7500 0.0000 0.5000
vt 0.0833 0.0000 0.5000
vt -0.0833 0.0000 0.5000
vt 0.2500 0.0000 0.5000
vt 0.4167 0.0000 0.5000
vt 0.5833 0.0000 0.5000
vt 0.9167 0.0000 1.0000
vt 0.7500 0.0000 1.0000
vt 0.0833 0.0000 1.0000
vt -0.0833 0.0000 1.0000
vt 0.2500 0.0000 1.0000
vt 0.4167 0.0000 1.0000
vt 0.5833 0.0000 1.0000
vt 0.9167 1.0000 1.0000
vt 0.7500 1.0000 1.0000
vt 0.0833 1.0000 1.0000
vt -0.0833 1.0000 1.0000
vt 0.2500 1.0000 1.0000
vt 0.4167 1.0000 1.0000
vt 0.5833 1.0000 1.0000
vt 0.9167 1.0000 0.5000
vt 0.7500 1.0000 0.5000
vt 0.0833 1.0000 0.5000
vt -0.0833 1.0000 0.5000
vt 0.2500 1.0000 0.5000
vt 0.4167 1.0000 0.5000
vt 0.5833 1.0000 0.5000
vt 0.5000 1.0000 0.0000
# 30 texture coords

o Cylinder009
g Cylinder009
usemtl wire_138008110
s 1
f 85/39/65 86/40/65 87/41/65 
f 85/39/65 88/42/65 86/43/65 
f 85/39/65 89/44/65 88/42/65 
f 85/39/65 90/45/65 89/44/65 
f 85/39/65 91/46/65 90/45/65 
f 85/39/65 87/41/65 91/46/65 
f 87/41/65 86/40/65 92/47/66 93/48/67 
f 86/43/65 88/42/65 94/49/68 92/50/66 
f 88/42/65 89/44/65 95/51/69 94/49/68 
f 89/44/65 90/45/65 96/52/70 95/51/69 
f 90/45/65 91/46/65 97/53/71 96/52/70 
f 91/46/65 87/41/65 93/48/67 97/53/71 
s 8
f 93/48/67 92/47/66 98/54/72 99/55/73 
f 92/50/66 94/49/68 100/56/74 98/57/72 
f 94/49/68 95/51/69 101/58/75 100/56/74 
f 95/51/69 96/52/70 102/59/76 101/58/75 
f 96/52/70 97/53/71 103/60/77 102/59/76 
f 97/53/71 93/48/67 99/55/73 103/60/77 
s 1
f 99/55/73 98/54/72 104/61/78 105/62/79 
f 98/57/72 100/56/74 106/63/80 104/64/78 
f 100/56/74 101/58/75 107/65/81 106/63/80 
f 101/58/75 102/59/76 108/66/82 107/65/81 
f 102/59/76 103/60/77 109/67/83 108/66/82 
f 103/60/77 99/55/73 105/62/79 109/67/83 
f 110/68/84 111/62/85 112/61/86 
f 110/68/84 112/64/86 113/63/87 
f 110/68/84 113/63/87 114/65/88 
f 110/68/84 114/65/88 115/66/89 
f 110/68/84 115/66/89 116/67/74 
f 110/68/84 116/67/74 111/62/85 
s off
f 105/62/79 104/61/78 112/61/86 111/62/85 
f 104/64/78 106/63/80 113/63/87 112/64/86 
f 106/63/80 107/65/81 114/65/88 113/63/87 
f 107/65/81 108/66/82 115/66/89 114/65/88 
f 108/66/82 109/67/83 116/67/74 115/66/89 
f 109/67/83 105/62/79 111/62/85 116/67/74 
# 24 polygons - 12 triangles

#
# object Cylinder012
#

v  0.0000 -77.9572 -0.0000
v  9.2933 -77.9572 -16.0964
v  16.0964 -77.9572 -9.2933
v  18.5866 -77.9572 -0.0000
v  -9.2933 -77.9572 -16.0964
v  -0.0000 -77.9572 -18.5866
v  -18.5866 -77.9572 -0.0000
v  -16.0964 -77.9572 -9.2933
v  -9.2933 -77.9572 16.0964
v  -16.0964 -77.9572 9.2933
v  9.2933 -77.9572 16.0964
v  -0.0000 -77.9572 18.5866
v  16.0964 -77.9572 9.2933
v  16.0964 -73.9189 -9.2933
v  18.5866 -73.9189 -0.0000
v  9.2933 -73.9189 -16.0964
v  -0.0000 -73.9189 -18.5866
v  -9.2933 -73.9189 -16.0964
v  -16.0964 -73.9189 -9.2933
v  -18.5866 -73.9189 -0.0000
v  -16.0964 -73.9189 9.2933
v  -9.2933 -73.9189 16.0964
v  -0.0000 -73.9189 18.5866
v  9.2933 -73.9189 16.0964
v  16.0964 -73.9189 9.2933
v  0.0000 -73.9189 -0.0000
# 26 vertices

vn 0.0000 -1.0000 -0.0000
vn 0.3786 -0.6533 -0.6557
vn 0.6557 -0.6533 -0.3786
vn 0.7571 -0.6533 0.0000
vn -0.3785 -0.6533 -0.6557
vn 0.0000 -0.6533 -0.7571
vn -0.7571 -0.6533 0.0000
vn -0.6557 -0.6533 -0.3785
vn -0.3786 -0.6533 0.6557
vn -0.6557 -0.6532 0.3786
vn 0.3786 -0.6532 0.6557
vn 0.0000 -0.6533 0.7571
vn 0.6557 -0.6533 0.3786
vn 0.6557 0.6533 -0.3786
vn 0.7571 0.6533 0.0000
vn 0.3786 0.6533 -0.6557
vn 0.0000 0.6533 -0.7571
vn -0.3785 0.6533 -0.6557
vn -0.6557 0.6533 -0.3785
vn -0.7571 0.6533 0.0000
vn -0.6557 0.6532 0.3786
vn -0.3786 0.6533 0.6557
vn 0.0000 0.6533 0.7571
vn 0.3786 0.6532 0.6557
vn 0.6557 0.6533 0.3786
vn 0.0000 1.0000 -0.0000
# 26 vertex normals

vt 0.5000 0.0000 0.0000
vt 0.9167 0.0000 1.0000
vt 0.8333 0.0000 1.0000
vt 0.7500 0.0000 1.0000
vt 0.0833 0.0000 1.0000
vt 0.0000 0.0000 1.0000
vt -0.0833 0.0000 1.0000
vt 0.2500 0.0000 1.0000
vt 0.1667 0.0000 1.0000
vt 0.4167 0.0000 1.0000
vt 0.3333 0.0000 1.0000
vt 0.5833 0.0000 1.0000
vt 0.5000 0.0000 1.0000
vt 0.6667 0.0000 1.0000
vt 0.8333 1.0000 1.0000
vt 0.7500 1.0000 1.0000
vt 0.9167 1.0000 1.0000
vt 0.0000 1.0000 1.0000
vt -0.0833 1.0000 1.0000
vt 0.0833 1.0000 1.0000
vt 0.1667 1.0000 1.0000
vt 0.2500 1.0000 1.0000
vt 0.3333 1.0000 1.0000
vt 0.4167 1.0000 1.0000
vt 0.5000 1.0000 1.0000
vt 0.5833 1.0000 1.0000
vt 0.6667 1.0000 1.0000
vt 0.5000 1.0000 0.0000
# 28 texture coords

o Cylinder012
g Cylinder012
usemtl wire_006135058
s 1
f 117/69/90 118/70/91 119/71/92 120/72/93 
f 117/69/90 121/73/94 122/74/95 118/75/91 
f 117/69/90 123/76/96 124/77/97 121/73/94 
f 117/69/90 125/78/98 126/79/99 123/76/96 
f 117/69/90 127/80/100 128/81/101 125/78/98 
f 117/69/90 120/72/93 129/82/102 127/80/100 
s 8
f 120/72/93 119/71/92 130/83/103 131/84/104 
f 119/71/92 118/70/91 132/85/105 130/83/103 
f 118/75/91 122/74/95 133/86/106 132/87/105 
f 122/74/95 121/73/94 134/88/107 133/86/106 
f 121/73/94 124/77/97 135/89/108 134/88/107 
f 124/77/97 123/76/96 136/90/109 135/89/108 
f 123/76/96 126/79/99 137/91/110 136/90/109 
f 126/79/99 125/78/98 138/92/111 137/91/110 
f 125/78/98 128/81/101 139/93/112 138/92/111 
f 128/81/101 127/80/100 140/94/113 139/93/112 
f 127/80/100 129/82/102 141/95/114 140/94/113 
f 129/82/102 120/72/93 131/84/104 141/95/114 
s 1
f 131/84/104 130/83/103 132/85/105 142/96/115 
f 132/87/105 133/86/106 134/88/107 142/96/115 
f 134/88/107 135/89/108 136/90/109 142/96/115 
f 136/90/109 137/91/110 138/92/111 142/96/115 
f 138/92/111 139/93/112 140/94/113 142/96/115 
f 140/94/113 141/95/114 131/84/104 142/96/115 
# 24 polygons

