# 3ds Max Wavefront OBJ Exporter v0.97b - (c)2007 guruware
# File Created: 29.04.2024 16:14:13

mtllib table_size_sample.mtl

#
# object ???_??
#

v  -34.3067 1.6025 -100.3584
v  -34.3067 20.7979 -100.3584
v  34.7382 20.7979 -100.3584
v  34.7382 1.6025 -100.3584
v  -34.3067 35.2377 -100.3584
v  34.7382 35.2377 -100.3584
v  -34.3067 1.6025 -65.3866
v  34.7382 1.6025 -65.3866
v  34.7382 20.7979 -65.3866
v  -34.3067 20.7979 -65.3866
v  34.7382 35.2377 -65.3866
v  -34.3067 35.2377 -65.3866
# 12 vertices

vn -0.5774 -0.5774 -0.5774
vn -0.7071 0.0000 -0.7071
vn 0.7071 0.0000 -0.7071
vn 0.5774 -0.5774 -0.5774
vn -0.5774 0.5774 -0.5774
vn 0.5774 0.5774 -0.5774
vn -0.5774 -0.5774 0.5774
vn 0.5774 -0.5774 0.5774
vn 0.7071 0.0000 0.7071
vn -0.7071 0.0000 0.7071
vn 0.5774 0.5774 0.5774
vn -0.5774 0.5774 0.5774
# 12 vertex normals

vt 1.0000 0.0000 0.0000
vt 1.0000 0.5000 0.0000
vt 0.0000 0.5000 0.0000
vt 0.0000 0.0000 0.0000
vt 1.0000 1.0000 0.0000
vt 0.0000 1.0000 0.0000
vt 0.5000 0.0000 0.0000
vt 0.5000 1.0000 0.0000
# 8 texture coords

o ???_??
g ???_??
usemtl wire_008110135
s 2
f 1/1/1 2/2/2 3/3/3 4/4/4 
f 2/2/2 5/5/5 6/6/6 3/3/3 
s 4
f 7/4/7 8/1/8 9/2/9 10/3/10 
f 10/3/10 9/2/9 11/5/11 12/6/12 
s 8
f 1/4/1 4/1/4 8/5/8 7/6/7 
s 16
f 4/4/4 3/7/3 9/8/9 8/6/8 
f 3/7/3 6/1/6 11/5/11 9/8/9 
s 32
f 6/4/6 5/1/5 12/5/12 11/6/11 
s 64
f 5/4/5 2/7/2 10/8/10 12/6/12 
f 2/7/2 1/1/1 7/5/7 10/8/10 
# 10 polygons

